<svg xmlns="http://www.w3.org/2000/svg" version="1.1" xmlns:xlink="http://www.w3.org/1999/xlink" xmlns:svgjs="http://svgjs.dev/svgjs" width="1500" height="242" viewBox="0 0 1500 242"><g transform="matrix(1,0,0,1,-0.9090909090909918,-0.04876375122536558)"><svg viewBox="0 0 396 64" data-background-color="#ffffff" preserveAspectRatio="xMidYMid meet" height="242" width="1500" xmlns="http://www.w3.org/2000/svg" xmlns:xlink="http://www.w3.org/1999/xlink"><g id="tight-bounds" transform="matrix(1,0,0,1,0.2400000000000091,0.012896198671171533)"><svg viewBox="0 0 395.52 63.974207602657664" height="63.974207602657664" width="395.52"><g><svg viewBox="0 0 395.52 63.974207602657664" height="63.974207602657664" width="395.52"><g><svg viewBox="0 0 395.52 63.974207602657664" height="63.974207602657664" width="395.52"><g id="textblocktransform"><svg viewBox="0 0 395.52 63.974207602657664" height="63.974207602657664" width="395.52" id="textblock"><g><svg viewBox="0 0 395.52 63.974207602657664" height="63.974207602657664" width="395.52"><g transform="matrix(1,0,0,1,0,0)"><svg width="395.52" viewBox="3.25 -35.5 224.13 36.26" height="63.974207602657664" data-palette-color="#2a2c35"><path d="M31.25-10.5L31.25-10.5Q31.25-8.33 30.42-6.42 29.59-4.52 28.16-3.09 26.73-1.66 24.83-0.83 22.92 0 20.75 0L20.75 0 3.25 0 3.25-35.01 20.75-35.01Q22.92-35.01 24.83-34.18 26.73-33.35 28.16-31.92 29.59-30.49 30.42-28.59 31.25-26.68 31.25-24.51L31.25-24.51Q31.25-23.54 30.98-22.51 30.71-21.48 30.22-20.53 29.74-19.58 29.05-18.8 28.37-18.02 27.54-17.5L27.54-17.5Q28.39-17.04 29.08-16.25 29.76-15.45 30.25-14.5 30.74-13.55 30.99-12.51 31.25-11.47 31.25-10.5ZM10.25-13.99L10.25-7.01 20.75-7.01Q21.48-7.01 22.12-7.28 22.75-7.54 23.23-8.02 23.71-8.5 23.97-9.13 24.24-9.77 24.24-10.5L24.24-10.5Q24.24-11.23 23.97-11.87 23.71-12.5 23.23-12.98 22.75-13.45 22.12-13.72 21.48-13.99 20.75-13.99L20.75-13.99 10.25-13.99ZM10.25-28L10.25-21 20.75-21Q21.48-21 22.12-21.26 22.75-21.53 23.23-22.01 23.71-22.49 23.97-23.13 24.24-23.78 24.24-24.51L24.24-24.51Q24.24-25.24 23.97-25.88 23.71-26.51 23.23-26.99 22.75-27.47 22.12-27.73 21.48-28 20.75-28L20.75-28 10.25-28ZM43.14-13.99L57.15-13.99 57.15-21Q57.15-22.44 56.6-23.72 56.05-25 55.1-25.95 54.15-26.9 52.87-27.45 51.58-28 50.14-28L50.14-28Q48.7-28 47.42-27.45 46.14-26.9 45.19-25.95 44.24-25 43.69-23.72 43.14-22.44 43.14-21L43.14-21 43.14-13.99ZM64.16-21L64.16 0 57.15 0 57.15-7.01 43.14-7.01 43.14 0 36.15 0 36.15-21Q36.15-23.9 37.25-26.45 38.35-29 40.24-30.91 42.14-32.81 44.69-33.91 47.24-35.01 50.14-35.01L50.14-35.01Q53.05-35.01 55.6-33.91 58.15-32.81 60.06-30.91 61.96-29 63.06-26.45 64.16-23.9 64.16-21L64.16-21ZM94.48-9.69L98.19-3.59Q95.75-1.49 92.72-0.37 89.69 0.76 86.45 0.76L86.45 0.76Q83.95 0.76 81.65 0.11 79.34-0.54 77.33-1.72 75.31-2.91 73.65-4.57 71.99-6.23 70.81-8.24 69.62-10.25 68.98-12.56 68.33-14.87 68.33-17.36L68.33-17.36Q68.33-19.85 68.98-22.17 69.62-24.49 70.81-26.5 71.99-28.52 73.65-30.18 75.31-31.84 77.33-33.02 79.34-34.2 81.65-34.85 83.95-35.5 86.45-35.5L86.45-35.5Q89.69-35.5 92.72-34.39 95.75-33.28 98.19-31.15L98.19-31.15 94.48-25.05Q92.94-26.71 90.84-27.6 88.74-28.49 86.45-28.49L86.45-28.49Q84.13-28.49 82.1-27.61 80.07-26.73 78.56-25.23 77.05-23.73 76.17-21.69 75.29-19.65 75.29-17.36L75.29-17.36Q75.29-15.06 76.17-13.05 77.05-11.04 78.56-9.52 80.07-8.01 82.1-7.13 84.13-6.25 86.45-6.25L86.45-6.25Q88.74-6.25 90.84-7.14 92.94-8.03 94.48-9.69L94.48-9.69ZM125.48-9.69L129.19-3.59Q126.75-1.49 123.72-0.37 120.7 0.76 117.45 0.76L117.45 0.76Q114.96 0.76 112.65 0.11 110.34-0.54 108.33-1.72 106.32-2.91 104.66-4.57 103-6.23 101.81-8.24 100.63-10.25 99.98-12.56 99.33-14.87 99.33-17.36L99.33-17.36Q99.33-19.85 99.98-22.17 100.63-24.49 101.81-26.5 103-28.52 104.66-30.18 106.32-31.84 108.33-33.02 110.34-34.2 112.65-34.85 114.96-35.5 117.45-35.5L117.45-35.5Q120.7-35.5 123.72-34.39 126.75-33.28 129.19-31.15L129.19-31.15 125.48-25.05Q123.94-26.71 121.84-27.6 119.74-28.49 117.45-28.49L117.45-28.49Q115.13-28.49 113.1-27.61 111.08-26.73 109.56-25.23 108.05-23.73 107.17-21.69 106.29-19.65 106.29-17.36L106.29-17.36Q106.29-15.06 107.17-13.05 108.05-11.04 109.56-9.52 111.08-8.01 113.1-7.13 115.13-6.25 117.45-6.25L117.45-6.25Q119.74-6.25 121.84-7.14 123.94-8.03 125.48-9.69L125.48-9.69ZM140.25-13.99L140.25 0 133.24 0 133.24-35.01 140.25-35.01 140.25-21 154.24-21 154.24-35.01 161.24-35.01 161.24 0 154.24 0 154.24-13.99 140.25-13.99ZM195.35-35.01L195.35-13.99Q195.35-11.08 194.25-8.53 193.15-5.98 191.25-4.09 189.34-2.2 186.79-1.1 184.24 0 181.34 0L181.34 0Q178.43 0 175.88-1.1 173.33-2.2 171.44-4.09 169.54-5.98 168.44-8.53 167.35-11.08 167.35-13.99L167.35-13.99 167.35-35.01 174.33-35.01 174.33-13.99Q174.33-12.55 174.88-11.28 175.43-10.01 176.38-9.06 177.33-8.11 178.61-7.56 179.89-7.01 181.34-7.01L181.34-7.01Q182.78-7.01 184.06-7.56 185.34-8.11 186.29-9.06 187.24-10.01 187.79-11.28 188.34-12.55 188.34-13.99L188.34-13.99 188.34-35.01 195.35-35.01ZM199.37-24.51L199.37-24.51Q199.37-26.68 200.2-28.59 201.03-30.49 202.46-31.92 203.89-33.35 205.8-34.18 207.7-35.01 209.87-35.01L209.87-35.01 225.94-35.01 225.94-28 209.87-28Q209.14-28 208.51-27.73 207.87-27.47 207.39-26.99 206.92-26.51 206.65-25.88 206.38-25.24 206.38-24.51L206.38-24.51Q206.38-23.78 206.65-23.13 206.92-22.49 207.39-22.01 207.87-21.53 208.51-21.26 209.14-21 209.87-21L209.87-21 216.88-21Q219.05-21 220.97-20.18 222.89-19.36 224.31-17.93 225.74-16.5 226.56-14.59 227.38-12.67 227.38-10.5L227.38-10.5Q227.38-8.33 226.56-6.42 225.74-4.52 224.31-3.09 222.89-1.66 220.97-0.83 219.05 0 216.88 0L216.88 0 201.33 0 201.33-7.01 216.88-7.01Q217.61-7.01 218.25-7.28 218.88-7.54 219.36-8.02 219.83-8.5 220.1-9.13 220.37-9.77 220.37-10.5L220.37-10.5Q220.37-11.23 220.1-11.87 219.83-12.5 219.36-12.98 218.88-13.45 218.25-13.72 217.61-13.99 216.88-13.99L216.88-13.99 209.87-13.99Q207.7-13.99 205.8-14.82 203.89-15.65 202.46-17.08 201.03-18.51 200.2-20.42 199.37-22.34 199.37-24.51Z" opacity="1" transform="matrix(1,0,0,1,0,0)" fill="#2a2c35" class="wordmark-text-0" data-fill-palette-color="primary" id="text-0"></path></svg></g></svg></g></svg></g></svg></g></svg></g><defs></defs></svg><rect width="395.52" height="63.974207602657664" fill="none" stroke="none" visibility="hidden"></rect></g></svg></g></svg>